name analog
datacolumns 19
datarows 56
range 0.6135 0.641
endheader
time	ground_force_vx	ground_force_vy	ground_force_vz	ground_force_px	ground_force_py	ground_force_pz	l_ground_force_vx	l_ground_force_vy	l_ground_force_vz	l_ground_force_px	l_ground_force_py	l_ground_force_pz	ground_torque_x	ground_torque_y	ground_torque_z	l_ground_torque_x	l_ground_torque_y	l_ground_torque_z
0.6135	-0.0	-0.0	-0.0	35.01980209350586	1.327609300613403	-813.642578125	-0.0	-0.0	-0.0	-0.0	-0.0	-0.0	-0.0	-0.0	-0.0	-0.0	-0.0	-0.0
0.614	-0.0	-0.0	-0.0	32.8294677734375	-0.3470734655857086	-824.359375	-0.0	-0.0	-0.0	-0.0	-0.0	-0.0	-0.0	-0.0	-0.0	-0.0	-0.0	-0.0
0.6145	-0.0	-0.0	-0.0	30.32049560546875	-1.2795310020446775	-833.7381591796875	-0.0	-0.0	-0.0	-0.0	-0.0	-0.0	-0.0	-0.0	-0.0	-0.0	-0.0	-0.0
0.615	-0.0	-0.0	-0.0	28.090744018554688	-2.386246681213379	-844.1419067382812	-0.0	-0.0	-0.0	-0.0	-0.0	-0.0	-0.0	-0.0	-0.0	-0.0	-0.0	-0.0
0.6155	-0.0	-0.0	-0.0	26.38665580749512	-2.7135679721832275	-853.9891357421875	-0.0	-0.0	-0.0	-0.0	-0.0	-0.0	-0.0	-0.0	-0.0	-0.0	-0.0	-0.0
0.616	-0.0	-0.0	-0.0	25.63307762145996	-3.2779173851013184	-864.5450439453125	-0.0	-0.0	-0.0	-0.0	-0.0	-0.0	-0.0	-0.0	-0.0	-0.0	-0.0	-0.0
0.6165	-0.0	-0.0	-0.0	24.84008026123047	-3.010261297225952	-875.179931640625	-0.0	-0.0	-0.0	-0.0	-0.0	-0.0	-0.0	-0.0	-0.0	-0.0	-0.0	-0.0
0.617	-0.0	-0.0	-0.0	23.354040145874023	-2.6942873001098637	-885.149658203125	-0.0	-0.0	-0.0	-0.0	-0.0	-0.0	-0.0	-0.0	-0.0	-0.0	-0.0	-0.0
0.6175	-0.0	-0.0	-0.0	22.184326171875	-1.7619415521621704	-898.9990234375	-0.0	-0.0	-0.0	-0.0	-0.0	-0.0	-0.0	-0.0	-0.0	-0.0	-0.0	-0.0
0.618	-0.0	-0.0	-0.0	20.6759090423584	-0.366976797580719	-910.3005981445312	-0.0	-0.0	-0.0	-0.0	-0.0	-0.0	-0.0	-0.0	-0.0	-0.0	-0.0	-0.0
0.6185	-0.0	-0.0	-0.0	18.277587890625	0.9305906295776368	-921.63232421875	-0.0	-0.0	-0.0	-0.0	-0.0	-0.0	-0.0	-0.0	-0.0	-0.0	-0.0	-0.0
0.619	-0.0	-0.0	-0.0	15.554765701293944	2.000082731246948	-933.1719360351562	-0.0	-0.0	-0.0	-0.0	-0.0	-0.0	-0.0	-0.0	-0.0	-0.0	-0.0	-0.0
0.6195	-0.0	-0.0	-0.0	13.26804256439209	2.9588563442230225	-940.67333984375	-0.0	-0.0	-0.0	-0.0	-0.0	-0.0	-0.0	-0.0	-0.0	-0.0	-0.0	-0.0
0.62	-0.0	-0.0	-0.0	11.647446632385254	4.506555080413818	-946.7019653320312	-0.0	-0.0	-0.0	-0.0	-0.0	-0.0	-0.0	-0.0	-0.0	-0.0	-0.0	-0.0
0.6205	-0.0	-0.0	-0.0	10.203245162963867	5.665316581726074	-953.6966552734376	-0.0	-0.0	-0.0	-0.0	-0.0	-0.0	-0.0	-0.0	-0.0	-0.0	-0.0	-0.0
0.621	-0.0	-0.0	-0.0	9.606905937194824	7.308692932128906	-957.2061767578124	-0.0	-0.0	-0.0	-0.0	-0.0	-0.0	-0.0	-0.0	-0.0	-0.0	-0.0	-0.0
0.6215	-0.0	-0.0	-0.0	8.843170166015625	8.762364387512207	-961.9275512695312	-0.0	-0.0	-0.0	-0.0	-0.0	-0.0	-0.0	-0.0	-0.0	-0.0	-0.0	-0.0
0.622	-0.0	-0.0	-0.0	7.322192192077637	9.358692169189451	-970.185302734375	-0.0	-0.0	-0.0	-0.0	-0.0	-0.0	-0.0	-0.0	-0.0	-0.0	-0.0	-0.0
0.6225	-0.0	-0.0	-0.0	4.945406436920166	10.89699649810791	-974.8846435546876	-0.0	-0.0	-0.0	-0.0	-0.0	-0.0	-0.0	-0.0	-0.0	-0.0	-0.0	-0.0
0.623	-0.0	-0.0	-0.0	1.9238758087158203	11.141300201416016	-980.5809326171876	-0.0	-0.0	-0.0	-0.0	-0.0	-0.0	-0.0	-0.0	-0.0	-0.0	-0.0	-0.0
0.6235	-0.0	-0.0	-0.0	-0.5352630615234375	10.656978607177734	-988.0573120117188	-0.0	-0.0	-0.0	-0.0	-0.0	-0.0	-0.0	-0.0	-0.0	-0.0	-0.0	-0.0
0.624	-0.0	-0.0	-0.0	-2.601868152618408	10.401580810546877	-993.70654296875	-0.0	-0.0	-0.0	-0.0	-0.0	-0.0	-0.0	-0.0	-0.0	-0.0	-0.0	-0.0
0.6245	-0.0	-0.0	-0.0	-3.862553596496582	9.079242706298828	-1000.7686157226562	-0.0	-0.0	-0.0	-0.0	-0.0	-0.0	-0.0	-0.0	-0.0	-0.0	-0.0	-0.0
0.625	-0.0	-0.0	-0.0	-5.620262145996094	8.108860969543457	-1006.153564453125	-0.0	-0.0	-0.0	-0.0	-0.0	-0.0	-0.0	-0.0	-0.0	-0.0	-0.0	-0.0
0.6255000000000001	-0.0	-0.0	-0.0	-6.526180744171143	7.13043212890625	-1010.44775390625	-0.0	-0.0	-0.0	-0.0	-0.0	-0.0	-0.0	-0.0	-0.0	-0.0	-0.0	-0.0
0.626	-0.0	-0.0	-0.0	-7.96461296081543	5.730269432067871	-1016.9035034179688	-0.0	-0.0	-0.0	-0.0	-0.0	-0.0	-0.0	-0.0	-0.0	-0.0	-0.0	-0.0
0.6265000000000001	-0.0	-0.0	-0.0	-8.678500175476074	4.711382389068604	-1019.3765869140624	-0.0	-0.0	-0.0	-0.0	-0.0	-0.0	-0.0	-0.0	-0.0	-0.0	-0.0	-0.0
0.627	-0.0	-0.0	-0.0	-9.316155433654783	3.450736284255981	-1021.3461303710938	-0.0	-0.0	-0.0	-0.0	-0.0	-0.0	-0.0	-0.0	-0.0	-0.0	-0.0	-0.0
0.6275000000000001	-0.0	-0.0	-0.0	-9.124895095825195	2.406674861907959	-1023.3641967773438	-0.0	-0.0	-0.0	-0.0	-0.0	-0.0	-0.0	-0.0	-0.0	-0.0	-0.0	-0.0
0.628	-0.0	-0.0	-0.0	-8.806621551513672	1.2097166776657104	-1023.6178588867188	-0.0	-0.0	-0.0	-0.0	-0.0	-0.0	-0.0	-0.0	-0.0	-0.0	-0.0	-0.0
0.6285000000000001	-0.0	-0.0	-0.0	-7.926679134368896	0.5858699083328247	-1023.063232421875	-0.0	-0.0	-0.0	-0.0	-0.0	-0.0	-0.0	-0.0	-0.0	-0.0	-0.0	-0.0
0.629	-0.0	-0.0	-0.0	-7.7481560707092285	-0.0511384792625904	-1019.4278564453124	-0.0	-0.0	-0.0	-0.0	-0.0	-0.0	-0.0	-0.0	-0.0	-0.0	-0.0	-0.0
0.6295000000000001	-0.0	-0.0	-0.0	-7.748010158538818	-0.2447216808795929	-1016.2489013671876	-0.0	-0.0	-0.0	-0.0	-0.0	-0.0	-0.0	-0.0	-0.0	-0.0	-0.0	-0.0
0.63	-0.0	-0.0	-0.0	-7.939735412597656	-0.0915149450302124	-1013.3795776367188	-0.0	-0.0	-0.0	-0.0	-0.0	-0.0	-0.0	-0.0	-0.0	-0.0	-0.0	-0.0
0.6305000000000001	-0.0	-0.0	-0.0	-8.437156677246094	0.8777883648872375	-1008.178955078125	-0.0	-0.0	-0.0	-0.0	-0.0	-0.0	-0.0	-0.0	-0.0	-0.0	-0.0	-0.0
0.631	-0.0	-0.0	-0.0	-9.380777359008787	2.1527907848358154	-1003.4383544921876	-0.0	-0.0	-0.0	-0.0	-0.0	-0.0	-0.0	-0.0	-0.0	-0.0	-0.0	-0.0
0.6315000000000001	-0.0	-0.0	-0.0	-11.40877914428711	3.640583276748657	-997.583984375	-0.0	-0.0	-0.0	-0.0	-0.0	-0.0	-0.0	-0.0	-0.0	-0.0	-0.0	-0.0
0.632	-0.0	-0.0	-0.0	-12.38634967803955	4.892354488372803	-995.42626953125	-0.0	-0.0	-0.0	-0.0	-0.0	-0.0	-0.0	-0.0	-0.0	-0.0	-0.0	-0.0
0.6325000000000001	-0.0	-0.0	-0.0	-13.217199325561523	5.258693695068359	-989.96337890625	-0.0	-0.0	-0.0	-0.0	-0.0	-0.0	-0.0	-0.0	-0.0	-0.0	-0.0	-0.0
0.633	-0.0	-0.0	-0.0	-14.010953903198242	6.595649719238281	-986.896728515625	-0.0	-0.0	-0.0	-0.0	-0.0	-0.0	-0.0	-0.0	-0.0	-0.0	-0.0	-0.0
0.6335000000000001	-0.0	-0.0	-0.0	-13.799046516418455	6.825614929199219	-982.8079833984376	-0.0	-0.0	-0.0	-0.0	-0.0	-0.0	-0.0	-0.0	-0.0	-0.0	-0.0	-0.0
0.634	-0.0	-0.0	-0.0	-13.128357887268066	6.914806365966797	-979.6871948242188	-0.0	-0.0	-0.0	-0.0	-0.0	-0.0	-0.0	-0.0	-0.0	-0.0	-0.0	-0.0
0.6345000000000001	-0.0	-0.0	-0.0	-12.802769660949709	5.385138511657715	-977.9881591796876	-0.0	-0.0	-0.0	-0.0	-0.0	-0.0	-0.0	-0.0	-0.0	-0.0	-0.0	-0.0
0.635	-0.0	-0.0	-0.0	-12.221839904785156	4.686669826507568	-975.4249267578124	-0.0	-0.0	-0.0	-0.0	-0.0	-0.0	-0.0	-0.0	-0.0	-0.0	-0.0	-0.0
0.6355000000000001	-0.0	-0.0	-0.0	-11.738563537597656	3.1195640563964844	-977.2489013671876	-0.0	-0.0	-0.0	-0.0	-0.0	-0.0	-0.0	-0.0	-0.0	-0.0	-0.0	-0.0
0.636	-0.0	-0.0	-0.0	-10.883682250976562	1.9237459897994995	-973.128662109375	-0.0	-0.0	-0.0	-0.0	-0.0	-0.0	-0.0	-0.0	-0.0	-0.0	-0.0	-0.0
0.6365000000000001	-0.0	-0.0	-0.0	-10.333389282226562	0.2303342372179031	-973.3917846679688	-0.0	-0.0	-0.0	-0.0	-0.0	-0.0	-0.0	-0.0	-0.0	-0.0	-0.0	-0.0
0.637	-0.0	-0.0	-0.0	-10.080787658691406	-1.017440676689148	-973.1573486328124	-0.0	-0.0	-0.0	-0.0	-0.0	-0.0	-0.0	-0.0	-0.0	-0.0	-0.0	-0.0
0.6375000000000001	-0.0	-0.0	-0.0	-10.54211711883545	-2.919633150100708	-973.6312255859376	-0.0	-0.0	-0.0	-0.0	-0.0	-0.0	-0.0	-0.0	-0.0	-0.0	-0.0	-0.0
0.638	-0.0	-0.0	-0.0	-9.902366638183594	-4.16154146194458	-973.4248657226562	-0.0	-0.0	-0.0	-0.0	-0.0	-0.0	-0.0	-0.0	-0.0	-0.0	-0.0	-0.0
0.6385000000000001	-0.0	-0.0	-0.0	-9.960575103759766	-4.981663227081299	-975.0834350585938	-0.0	-0.0	-0.0	-0.0	-0.0	-0.0	-0.0	-0.0	-0.0	-0.0	-0.0	-0.0
0.639	-0.0	-0.0	-0.0	-9.414043426513672	-5.714494705200195	-975.046142578125	-0.0	-0.0	-0.0	-0.0	-0.0	-0.0	-0.0	-0.0	-0.0	-0.0	-0.0	-0.0
0.6395000000000001	-0.0	-0.0	-0.0	-8.984045028686523	-5.824944496154785	-976.064697265625	-0.0	-0.0	-0.0	-0.0	-0.0	-0.0	-0.0	-0.0	-0.0	-0.0	-0.0	-0.0
0.64	-0.0	-0.0	-0.0	-8.118156433105469	-5.521195888519287	-976.1070556640624	-0.0	-0.0	-0.0	-0.0	-0.0	-0.0	-0.0	-0.0	-0.0	-0.0	-0.0	-0.0
0.6405	-0.0	-0.0	-0.0	-7.246631622314453	-5.18556547164917	-977.10400390625	-0.0	-0.0	-0.0	-0.0	-0.0	-0.0	-0.0	-0.0	-0.0	-0.0	-0.0	-0.0
0.641	-0.0	-0.0	-0.0	-6.281281471252441	-4.545650482177734	-976.1255493164062	-0.0	-0.0	-0.0	-0.0	-0.0	-0.0	-0.0	-0.0	-0.0	-0.0	-0.0	-0.0
